<svg width="13" height="10" viewBox="0 0 13 10" fill="none" xmlns="http://www.w3.org/2000/svg">
<path fill-rule="evenodd" clip-rule="evenodd" d="M10.455 0.455001C10.6649 0.246908 10.9483 0.129795 11.2439 0.128979C11.5395 0.128164 11.8235 0.243712 12.0346 0.450643C12.2456 0.657573 12.3668 0.939261 12.3718 1.2348C12.3769 1.53035 12.2654 1.816 12.0615 2.03L6.07349 9.515C5.97058 9.62585 5.84637 9.7148 5.70829 9.77655C5.57021 9.8383 5.4211 9.87156 5.26987 9.87436C5.11864 9.87717 4.9684 9.84944 4.82813 9.79285C4.68786 9.73626 4.56044 9.65196 4.45349 9.545L0.485992 5.576C0.375462 5.47301 0.286809 5.34881 0.225321 5.21081C0.163833 5.07281 0.13077 4.92384 0.128105 4.77278C0.12544 4.62173 0.153227 4.47169 0.209808 4.3316C0.26639 4.19152 0.350607 4.06427 0.457435 3.95744C0.564263 3.85062 0.691514 3.7664 0.831596 3.70982C0.971678 3.65324 1.12172 3.62545 1.27278 3.62811C1.42383 3.63078 1.5728 3.66384 1.7108 3.72533C1.8488 3.78682 1.973 3.87547 2.07599 3.986L5.21699 7.1255L10.4265 0.488001C10.4358 0.476381 10.4458 0.465359 10.4565 0.455001H10.455Z" fill="#08A652"/>
</svg>
